<?xml version="1.0" standalone="no"?><!DOCTYPE svg PUBLIC "-//W3C//DTD SVG 1.1//EN" "http://www.w3.org/Graphics/SVG/1.1/DTD/svg11.dtd"><svg t="1567521061058" class="icon" viewBox="0 0 1194 1024" version="1.1" xmlns="http://www.w3.org/2000/svg" p-id="13824" xmlns:xlink="http://www.w3.org/1999/xlink" width="74.625" height="64"><defs><style type="text/css"></style></defs><path d="M42.496 123.904h67.072c23.467 0 42.496-22.187 42.496-63.061S133.12 0 109.568 0H42.496C19.029 0 0 19.968 0 60.843c0 40.96 19.03 63.061 42.496 63.061z m306.688 0h791.04c30.123 0 54.443-22.187 54.443-63.061S1170.347 0 1140.224 0h-791.04c-30.037 0-54.443 19.968-54.443 60.843 0 40.96 24.32 63.061 54.443 63.061z m-236.97 317.44H41.556c-22.101 0-39.936 24.405-39.936 60.587s17.92 64.256 39.936 64.256h70.656c22.016 0 45.824-28.16 45.824-64.256 0-36.182-23.808-60.587-45.824-60.587z m1028.01 0h-791.04c-30.037 0-54.443 24.405-54.443 60.587s24.406 64.256 54.443 64.256h791.04c30.123 0 54.443-28.16 54.443-64.256 0-36.182-24.32-60.587-54.443-60.587zM113.494 835.157H45.482c-21.334 0-38.656 24.576-38.656 60.587 0 36.181 17.322 66.56 38.656 66.56h68.01c21.334 0 44.544-30.379 44.544-66.56 0-36.01-23.21-60.587-44.544-60.587z m1026.73 0h-791.04c-30.037 0-54.443 24.576-54.443 60.587 0 36.181 24.406 64.853 54.443 64.853h791.04c30.123 0 54.443-28.672 54.443-64.853 0-36.01-24.32-60.587-54.443-60.587z" fill="#2c2c2c" p-id="13825" data-spm-anchor-id="a313x.7781069.0.i27" class="selected"></path></svg>