<?xml version="1.0" standalone="no"?><!DOCTYPE svg PUBLIC "-//W3C//DTD SVG 1.1//EN" "http://www.w3.org/Graphics/SVG/1.1/DTD/svg11.dtd"><svg t="1567521391534" class="icon" viewBox="0 0 2133 1024" version="1.1" xmlns="http://www.w3.org/2000/svg" p-id="27004" xmlns:xlink="http://www.w3.org/1999/xlink" width="133.3125" height="64"><defs><style type="text/css"></style></defs><path d="M972.133333 687.333333l72.133334 193.6H1190.666667L905.2 131.2h-126.933333L492.666667 880.933333h146.8l68-193.6h264.666666z m-132.666666-366.8l88.8 244.4H751.333333l88.133334-244.4zM1192 724.533333c0 51.066667 16.933333 92.4 50.266667 122.933334 32.8 30.133333 76.933333 45.333333 131.2 45.333333 54.666667 0 100.133333-17.466667 135.733333-52.133333v40.266666h131.066667V534.533333c0-139.333333-70.533333-212.933333-203.866667-212.933333-69.466667 0-131.733333 16.933333-185.2 50.266667l-10 6.266666v142.933334l34.666667-28.4c46.4-37.866667 96.266667-56.4 152.266666-56.4 35.066667 0 74.8 10 80.4 84.133333l-130.8 18.4C1224.266667 560 1192 651.466667 1192 724.533333z m317.333333-94V654.666667c0 36.133333-10.533333 65.2-32.266666 88.8-21.2 23.066667-47.6 34.266667-80.666667 34.266666-22.8 0-40.266667-5.733333-53.466667-17.466666-12.533333-11.2-18.533333-24.933333-18.533333-43.066667 0-21.6 5.6-37.466667 17.066667-48.666667 8.4-8.133333 28-19.2 73.6-25.2l94.266666-12.8z" fill="#040000" p-id="27005"></path></svg>