<?xml version="1.0" standalone="no"?><!DOCTYPE svg PUBLIC "-//W3C//DTD SVG 1.1//EN" "http://www.w3.org/Graphics/SVG/1.1/DTD/svg11.dtd"><svg t="1567521195371" class="icon" viewBox="0 0 1024 1024" version="1.1" xmlns="http://www.w3.org/2000/svg" p-id="13999" xmlns:xlink="http://www.w3.org/1999/xlink" width="64" height="64"><defs><style type="text/css"></style></defs><path d="M171.306667 490.666667a346.581333 346.581333 0 0 0 2.005333 64H53.333333a32 32 0 0 1 0-64h117.973334z m681.386666 0h117.973334a32 32 0 0 1 0 64h-119.978667a344.704 344.704 0 0 0 1.984-64zM512 746.666667c129.6 0 234.666667-105.066667 234.666667-234.666667s-105.066667-234.666667-234.666667-234.666667-234.666667 105.066667-234.666667 234.666667 105.066667 234.666667 234.666667 234.666667z m0 64c-164.949333 0-298.666667-133.717333-298.666667-298.666667s133.717333-298.666667 298.666667-298.666667 298.666667 133.717333 298.666667 298.666667-133.717333 298.666667-298.666667 298.666667z" p-id="14000" data-spm-anchor-id="a313x.7781069.0.i32" class="selected" fill="#2c2c2c"></path></svg>